<svg width="25" height="24" viewBox="0 0 25 24" fill="none" xmlns="http://www.w3.org/2000/svg">
<path d="M20.2757 10.63L15.6057 8.62L14.5657 8.18C14.4057 8.1 14.2657 7.89 14.2657 7.71V4.65C14.2657 3.69 13.5557 2.55 12.6957 2.11C12.3957 1.96 12.0357 1.96 11.7357 2.11C10.8857 2.55 10.1757 3.7 10.1757 4.66V7.72C10.1757 7.9 10.0357 8.11 9.87567 8.19L4.17568 10.64C3.54568 10.9 3.03568 11.69 3.03568 12.37V13.69C3.03568 14.54 3.67567 14.96 4.46567 14.62L9.47568 12.46C9.86567 12.29 10.1857 12.5 10.1857 12.93V14.04V15.84C10.1857 16.07 10.0557 16.4 9.89568 16.56L7.57568 18.89C7.33568 19.13 7.22568 19.6 7.33568 19.94L7.78568 21.3C7.96567 21.89 8.63567 22.17 9.18568 21.89L11.5657 19.89C11.9257 19.58 12.5157 19.58 12.8757 19.89L15.2557 21.89C15.8057 22.16 16.4757 21.89 16.6757 21.3L17.1257 19.94C17.2357 19.61 17.1257 19.13 16.8857 18.89L14.5657 16.56C14.3957 16.4 14.2657 16.07 14.2657 15.84V12.93C14.2657 12.5 14.5757 12.3 14.9757 12.46L19.9857 14.62C20.7757 14.96 21.4157 14.54 21.4157 13.69V12.37C21.4157 11.69 20.9057 10.9 20.2757 10.63Z" fill="#7F7F7F"/>
</svg>
