<svg width="25" height="24" viewBox="0 0 25 24" fill="none" xmlns="http://www.w3.org/2000/svg">
<path d="M20.3994 10.63L15.7294 8.62L14.6894 8.18C14.5294 8.1 14.3894 7.89 14.3894 7.71V4.65C14.3894 3.69 13.6794 2.55 12.8194 2.11C12.5194 1.96 12.1594 1.96 11.8594 2.11C11.0094 2.55 10.2994 3.7 10.2994 4.66V7.72C10.2994 7.9 10.1594 8.11 9.99936 8.19L4.29936 10.64C3.66936 10.9 3.15936 11.69 3.15936 12.37V13.69C3.15936 14.54 3.79936 14.96 4.58936 14.62L9.59936 12.46C9.98936 12.29 10.3094 12.5 10.3094 12.93V14.04V15.84C10.3094 16.07 10.1794 16.4 10.0194 16.56L7.69936 18.89C7.45936 19.13 7.34936 19.6 7.45936 19.94L7.90936 21.3C8.08936 21.89 8.75936 22.17 9.30936 21.89L11.6894 19.89C12.0494 19.58 12.6394 19.58 12.9994 19.89L15.3794 21.89C15.9294 22.16 16.5994 21.89 16.7994 21.3L17.2494 19.94C17.3594 19.61 17.2494 19.13 17.0094 18.89L14.6894 16.56C14.5194 16.4 14.3894 16.07 14.3894 15.84V12.93C14.3894 12.5 14.6994 12.3 15.0994 12.46L20.1094 14.62C20.8994 14.96 21.5394 14.54 21.5394 13.69V12.37C21.5394 11.69 21.0294 10.9 20.3994 10.63Z" fill="white"/>
</svg>
