<svg width="50" height="50" viewBox="0 0 50 50" fill="none" xmlns="http://www.w3.org/2000/svg">
<path d="M33.7292 4.16675H16.2708C8.68749 4.16675 4.16666 8.68758 4.16666 16.2709V33.7084C4.16666 41.3126 8.68749 45.8334 16.2708 45.8334H33.7083C41.2917 45.8334 45.8125 41.3126 45.8125 33.7292V16.2709C45.8333 8.68758 41.3125 4.16675 33.7292 4.16675ZM28.7292 31.2501C29.3333 31.8542 29.3333 32.8542 28.7292 33.4584C28.4167 33.7709 28.0208 33.9167 27.625 33.9167C27.2292 33.9167 26.8333 33.7709 26.5208 33.4584L19.1667 26.1042C18.5625 25.5001 18.5625 24.5001 19.1667 23.8959L26.5208 16.5417C27.125 15.9376 28.125 15.9376 28.7292 16.5417C29.3333 17.1459 29.3333 18.1459 28.7292 18.7501L22.4792 25.0001L28.7292 31.2501Z" fill="#292D32" fill-opacity="0.5"/>
</svg>
