<svg width="50" height="50" viewBox="0 0 50 50" fill="none" xmlns="http://www.w3.org/2000/svg">
<path d="M33.7292 4.16675H16.2708C8.68749 4.16675 4.16666 8.68758 4.16666 16.2709V33.7084C4.16666 41.3126 8.68749 45.8334 16.2708 45.8334H33.7083C41.2917 45.8334 45.8125 41.3126 45.8125 33.7292V16.2709C45.8333 8.68758 41.3125 4.16675 33.7292 4.16675ZM30.8125 26.1042L23.4583 33.4584C23.1458 33.7709 22.75 33.9167 22.3542 33.9167C21.9583 33.9167 21.5625 33.7709 21.25 33.4584C20.6458 32.8542 20.6458 31.8542 21.25 31.2501L27.5 25.0001L21.25 18.7501C20.6458 18.1459 20.6458 17.1459 21.25 16.5417C21.8542 15.9376 22.8542 15.9376 23.4583 16.5417L30.8125 23.8959C31.4375 24.5001 31.4375 25.5001 30.8125 26.1042Z" fill="#177BA5"/>
</svg>
