<svg width="41" height="40" viewBox="0 0 41 40" fill="none" xmlns="http://www.w3.org/2000/svg">
<rect x="0.725677" y="0.5" width="39" height="39" rx="19.5" stroke="#7F7F7F" stroke-linejoin="round" stroke-dasharray="2 2"/>
<path d="M28.2757 18.63L23.6057 16.62L22.5657 16.18C22.4057 16.1 22.2657 15.89 22.2657 15.71V12.65C22.2657 11.69 21.5557 10.55 20.6957 10.11C20.3957 9.96 20.0357 9.96 19.7357 10.11C18.8857 10.55 18.1757 11.7 18.1757 12.66V15.72C18.1757 15.9 18.0357 16.11 17.8757 16.19L12.1757 18.64C11.5457 18.9 11.0357 19.69 11.0357 20.37V21.69C11.0357 22.54 11.6757 22.96 12.4657 22.62L17.4757 20.46C17.8657 20.29 18.1857 20.5 18.1857 20.93V22.04V23.84C18.1857 24.07 18.0557 24.4 17.8957 24.56L15.5757 26.89C15.3357 27.13 15.2257 27.6 15.3357 27.94L15.7857 29.3C15.9657 29.89 16.6357 30.17 17.1857 29.89L19.5657 27.89C19.9257 27.58 20.5157 27.58 20.8757 27.89L23.2557 29.89C23.8057 30.16 24.4757 29.89 24.6757 29.3L25.1257 27.94C25.2357 27.61 25.1257 27.13 24.8857 26.89L22.5657 24.56C22.3957 24.4 22.2657 24.07 22.2657 23.84V20.93C22.2657 20.5 22.5757 20.3 22.9757 20.46L27.9857 22.62C28.7757 22.96 29.4157 22.54 29.4157 21.69V20.37C29.4157 19.69 28.9057 18.9 28.2757 18.63Z" fill="#7F7F7F"/>
</svg>
